<svg width="40" height="40" viewBox="0 0 40 40" fill="none" xmlns="http://www.w3.org/2000/svg">
<path d="M13 15L13 11C13 7.13401 16.134 4 20 4V4C23.866 4 27 7.13401 27 11L27 15" stroke="#030126" stroke-width="2.5" stroke-linecap="round"/>
<path d="M6.36102 18.6678C6.50609 16.9269 6.57863 16.0565 7.15271 15.5282C7.7268 15 8.60027 15 10.3472 15H29.6528C31.3997 15 32.2732 15 32.8473 15.5282C33.4214 16.0565 33.4939 16.9269 33.639 18.6678L34.8195 32.8339C34.904 33.8474 34.9462 34.3542 34.6491 34.6771C34.352 35 33.8435 35 32.8264 35H7.1736C6.15655 35 5.64802 35 5.35092 34.6771C5.05382 34.3542 5.09605 33.8474 5.18051 32.8339L6.36102 18.6678Z" stroke="#030126" stroke-width="2.5"/>
<path d="M18.7841 32.4545V17.9091H19.7159V32.4545H18.7841ZM21.4716 22.5625C21.4186 22.0663 21.1951 21.6799 20.8011 21.4034C20.411 21.1269 19.9034 20.9886 19.2784 20.9886C18.839 20.9886 18.4621 21.0549 18.1477 21.1875C17.8333 21.3201 17.5928 21.5 17.4261 21.7273C17.2595 21.9545 17.1742 22.214 17.1705 22.5057C17.1705 22.7481 17.2254 22.9583 17.3352 23.1364C17.4489 23.3144 17.6023 23.4659 17.7955 23.5909C17.9886 23.7121 18.2027 23.8144 18.4375 23.8977C18.6723 23.9811 18.9091 24.0511 19.1477 24.108L20.2386 24.3807C20.678 24.483 21.1004 24.6212 21.5057 24.7955C21.9148 24.9697 22.2803 25.1894 22.6023 25.4545C22.928 25.7197 23.1856 26.0398 23.375 26.4148C23.5644 26.7898 23.6591 27.2292 23.6591 27.733C23.6591 28.4148 23.4848 29.0152 23.1364 29.5341C22.7879 30.0492 22.2841 30.4527 21.625 30.7443C20.9697 31.0322 20.1761 31.1761 19.2443 31.1761C18.339 31.1761 17.553 31.036 16.8864 30.7557C16.2235 30.4754 15.7045 30.0663 15.3295 29.5284C14.9583 28.9905 14.7576 28.3352 14.7273 27.5625H16.8011C16.8314 27.9678 16.9564 28.3049 17.1761 28.5739C17.3958 28.8428 17.6818 29.0436 18.0341 29.1761C18.3902 29.3087 18.7879 29.375 19.2273 29.375C19.6856 29.375 20.0871 29.3068 20.4318 29.1705C20.7803 29.0303 21.053 28.8371 21.25 28.5909C21.447 28.3409 21.5473 28.0492 21.5511 27.7159C21.5473 27.4129 21.4583 27.1629 21.2841 26.9659C21.1098 26.7652 20.8655 26.5985 20.5511 26.4659C20.2405 26.3295 19.8769 26.2083 19.4602 26.1023L18.1364 25.7614C17.178 25.5152 16.4205 25.142 15.8636 24.642C15.3106 24.1383 15.0341 23.4697 15.0341 22.6364C15.0341 21.9508 15.2197 21.3504 15.5909 20.8352C15.9659 20.3201 16.4754 19.9205 17.1193 19.6364C17.7633 19.3485 18.4924 19.2045 19.3068 19.2045C20.1326 19.2045 20.8561 19.3485 21.4773 19.6364C22.1023 19.9205 22.5928 20.3163 22.9489 20.8239C23.3049 21.3277 23.4886 21.9072 23.5 22.5625H21.4716Z" fill="#D31E15"/>
<rect x="9" y="38" width="5" height="4" transform="rotate(-90 9 38)" fill="white"/>
</svg>
