<svg width="40" height="40" viewBox="0 0 40 40" fill="none" xmlns="http://www.w3.org/2000/svg">
<path d="M6.3159 35.7451V31.7451M6.3159 17.2451C6.3159 17.2451 6.3159 19.683 6.3159 21.2451M6.3159 21.2451C7.68274 20.464 8.42206 19.9768 9.8159 19.2451C10.5891 18.8391 11.8159 18.2451 11.8159 18.2451C11.8159 18.2451 17.9875 19.2075 18.8159 22.2451C19.1242 23.3753 18.8159 25.2451 18.8159 25.2451C18.8159 25.2451 17.2239 26.1536 16.3159 25.7451M6.3159 21.2451C6.3159 25.3456 6.3159 31.7451 6.3159 31.7451M16.3159 25.7451C14.5585 25.1593 11.8159 24.2451 11.8159 24.2451M16.3159 25.7451C17.2922 26.5261 17.6193 27.3825 18.8159 27.7451C19.7503 28.0282 20.3586 27.9365 21.3159 27.7451C22.8596 27.4363 23.4635 26.5508 24.8159 25.7451C27.003 24.442 30.3159 22.2451 30.3159 22.2451C30.3159 22.2451 32.4875 21.4166 33.3159 22.2451C34.1443 23.0735 33.3159 25.2451 33.3159 25.2451C33.3159 25.2451 29.0239 28.8723 26.3159 31.2451C24.5475 32.7946 24.0224 34.4329 21.8159 35.2451C20.8815 35.589 20.3094 35.6798 19.3159 35.7451C15.6552 35.9856 10.8159 31.7451 10.8159 31.7451H6.3159" stroke="#131134" stroke-width="2.5"/>
<path d="M23.5616 19.5178V6.79051H24.377V19.5178H23.5616ZM25.7243 10.9915C25.6845 10.5905 25.5138 10.2789 25.2122 10.0568C24.9106 9.83478 24.5013 9.72375 23.9842 9.72375C23.6329 9.72375 23.3363 9.77346 23.0943 9.8729C22.8524 9.96901 22.6668 10.1032 22.5375 10.2756C22.4115 10.4479 22.3486 10.6435 22.3486 10.8622C22.3419 11.0445 22.3801 11.2036 22.4629 11.3395C22.5491 11.4754 22.6668 11.5931 22.8159 11.6925C22.9651 11.7886 23.1374 11.8731 23.3329 11.9461C23.5285 12.0157 23.7373 12.0753 23.9594 12.125L24.8741 12.3438C25.3183 12.4432 25.7259 12.5758 26.0972 12.7415C26.4684 12.9072 26.7899 13.1111 27.0616 13.353C27.3334 13.595 27.5439 13.88 27.693 14.2081C27.8455 14.5362 27.9234 14.9124 27.9267 15.3367C27.9234 15.9598 27.7643 16.5 27.4494 16.9574C27.1379 17.4115 26.6871 17.7645 26.0972 18.0164C25.5105 18.2649 24.8029 18.3892 23.9743 18.3892C23.1523 18.3892 22.4364 18.2633 21.8266 18.0114C21.22 17.7595 20.7461 17.3866 20.4047 16.8928C20.0666 16.3956 19.8893 15.7808 19.8727 15.0483H21.9558C21.979 15.3897 22.0768 15.6747 22.2491 15.9034C22.4248 16.1288 22.6585 16.2995 22.9501 16.4155C23.2451 16.5282 23.5782 16.5845 23.9494 16.5845C24.314 16.5845 24.6305 16.5315 24.899 16.4255C25.1708 16.3194 25.3812 16.1719 25.5304 15.983C25.6795 15.7941 25.7541 15.577 25.7541 15.3317C25.7541 15.103 25.6862 14.9108 25.5503 14.755C25.4177 14.5992 25.2222 14.4666 24.9636 14.3573C24.7084 14.2479 24.3952 14.1485 24.024 14.059L22.9153 13.7806C22.0569 13.5718 21.3791 13.2453 20.882 12.8012C20.3848 12.357 20.1379 11.7588 20.1412 11.0064C20.1379 10.3899 20.3019 9.85135 20.6334 9.39065C20.9681 8.92995 21.4272 8.57034 22.0105 8.31182C22.5938 8.05329 23.2567 7.92403 23.9991 7.92403C24.7548 7.92403 25.4144 8.05329 25.9778 8.31182C26.5446 8.57034 26.9854 8.92995 27.3003 9.39065C27.6151 9.85135 27.7776 10.385 27.7875 10.9915H25.7243Z" fill="#D31E15"/>
</svg>
