<svg width="417" height="57" viewBox="0 0 417 57" fill="none" xmlns="http://www.w3.org/2000/svg">
<path d="M196.212 50.4264C196.212 53.464 193.7 55.9245 190.593 55.9245H6.72209C3.61676 55.9245 1.09615 53.464 1.09615 50.4264V6.58073C1.09615 3.54457 3.61676 1.07544 6.72209 1.07544H190.591C193.7 1.07544 196.21 3.54457 196.21 6.58073L196.212 50.4264Z" fill="url(#paint0_linear_1_442)"/>
<path d="M190 1.14178C193.383 1.14178 196.137 3.82613 196.137 7.125V49.875C196.137 53.1739 193.383 55.8582 190 55.8582H7.30769C3.92423 55.8582 1.17106 53.1739 1.17106 49.875V7.125C1.17106 3.82613 3.92423 1.14178 7.30769 1.14178H190ZM190 6.50331e-07H7.30769C3.29029 6.50331e-07 0 3.20803 0 7.125V49.875C0 53.792 3.29029 57 7.30769 57H190C194.017 57 197.308 53.792 197.308 49.875V7.125C197.308 3.20803 194.017 6.50331e-07 190 6.50331e-07Z" fill="white"/>
<path d="M44.0332 28.1921C43.9908 23.5993 47.8902 21.3649 48.0685 21.2609C45.8602 18.1216 42.4372 17.6927 41.2344 17.6585C38.3595 17.3635 35.5709 19.3357 34.1065 19.3357C32.6128 19.3357 30.3576 17.687 27.9271 17.7355C24.7994 17.7825 21.8734 19.5481 20.2686 22.2898C16.9568 27.88 19.4268 36.0952 22.5998 40.6138C24.187 42.8269 26.0417 45.2978 28.4693 45.2109C30.8443 45.1154 31.7315 43.7346 34.5975 43.7346C37.4373 43.7346 38.2704 45.2109 40.7462 45.1553C43.2952 45.1154 44.8999 42.9323 46.4316 40.6993C48.2658 38.1628 49.0025 35.6648 49.0317 35.5366C48.9718 35.5166 44.0815 33.6969 44.0332 28.1921Z" fill="white"/>
<path d="M39.3563 14.686C40.6337 13.1284 41.5077 11.0095 41.2651 8.85913C39.4162 8.93893 37.1041 10.106 35.7726 11.6293C34.5946 12.9717 33.5423 15.1719 33.8142 17.241C35.891 17.392 38.0234 16.2193 39.3563 14.686Z" fill="white"/>
<path d="M71.6885 14.2628C71.6885 15.94 71.1726 17.2025 70.1422 18.0504C69.1878 18.8327 67.8315 19.2246 66.0747 19.2246C65.2036 19.2246 64.4582 19.1876 63.8342 19.1135V9.94929C64.6482 9.82104 65.5252 9.75549 66.4722 9.75549C68.1457 9.75549 69.407 10.1103 70.2576 10.82C71.2106 11.6222 71.6885 12.7694 71.6885 14.2628ZM70.0735 14.3041C70.0735 13.2168 69.7783 12.3832 69.1878 11.8018C68.5973 11.2218 67.735 10.9311 66.5994 10.9311C66.1171 10.9311 65.7064 10.9625 65.3659 11.028V17.9948C65.5544 18.0233 65.8993 18.0362 66.4006 18.0362C67.5728 18.0362 68.4775 17.7184 69.1147 17.0828C69.7519 16.4473 70.0735 15.521 70.0735 14.3041Z" fill="white"/>
<path d="M80.2516 15.7278C80.2516 16.7609 79.9491 17.6074 79.344 18.2714C78.7097 18.954 77.8693 19.2946 76.8199 19.2946C75.8086 19.2946 75.0033 18.9682 74.4026 18.3127C73.8033 17.6587 73.5037 16.8336 73.5037 15.8389C73.5037 14.7987 73.8121 13.9451 74.4318 13.2825C75.0515 12.6199 75.8846 12.2878 76.9339 12.2878C77.9453 12.2878 78.7579 12.6142 79.3732 13.2682C79.9579 13.9038 80.2516 14.7246 80.2516 15.7278ZM78.6629 15.7762C78.6629 15.1564 78.5256 14.6248 78.2523 14.1817C77.9307 13.6459 77.4733 13.378 76.8784 13.378C76.2631 13.378 75.7954 13.6459 75.4739 14.1817C75.1991 14.6248 75.0632 15.1649 75.0632 15.8033C75.0632 16.4232 75.2006 16.9547 75.4739 17.3979C75.8056 17.9337 76.2675 18.2016 76.8638 18.2016C77.4484 18.2016 77.9073 17.9294 78.2376 17.3836C78.5212 16.9319 78.6629 16.3961 78.6629 15.7762Z" fill="white"/>
<path d="M91.7335 12.4246L89.5777 19.142H88.1746L87.2816 16.225C87.0551 15.4969 86.8709 14.773 86.7277 14.0548H86.6999C86.5669 14.7929 86.3828 15.5154 86.146 16.225L85.1975 19.142H83.7783L81.7512 12.4246H83.3253L84.1042 15.618C84.2928 16.3732 84.4477 17.0929 84.5719 17.774H84.5997C84.7137 17.2126 84.9022 16.4972 85.1682 15.6322L86.146 12.426H87.3942L88.331 15.5638C88.5576 16.3291 88.7417 17.0658 88.8835 17.7754H88.9259C89.0296 17.0843 89.186 16.3476 89.3936 15.5638L90.2296 12.426H91.7335V12.4246Z" fill="white"/>
<path d="M99.674 19.1421H98.1423V15.2946C98.1423 14.109 97.6805 13.5162 96.7539 13.5162C96.2993 13.5162 95.9325 13.6786 95.6475 14.005C95.3654 14.3313 95.2222 14.716 95.2222 15.1564V19.1407H93.6905V14.3441C93.6905 13.7542 93.6715 13.1143 93.6349 12.4218H94.981L95.0526 13.472H95.095C95.2733 13.1457 95.5393 12.8764 95.8886 12.6612C96.3037 12.4104 96.7685 12.2836 97.2771 12.2836C97.9202 12.2836 98.4551 12.4859 98.8804 12.892C99.4095 13.3894 99.674 14.1318 99.674 15.1179V19.1421Z" fill="white"/>
<path d="M103.898 19.142H102.368V9.34229H103.898V19.142Z" fill="white"/>
<path d="M112.916 15.7278C112.916 16.7609 112.613 17.6074 112.008 18.2714C111.374 18.954 110.532 19.2946 109.484 19.2946C108.471 19.2946 107.666 18.9682 107.066 18.3127C106.467 17.6587 106.168 16.8336 106.168 15.8389C106.168 14.7987 106.476 13.9451 107.096 13.2825C107.715 12.6199 108.548 12.2878 109.596 12.2878C110.609 12.2878 111.42 12.6142 112.037 13.2682C112.622 13.9038 112.916 14.7246 112.916 15.7278ZM111.325 15.7762C111.325 15.1564 111.188 14.6248 110.915 14.1817C110.595 13.6459 110.136 13.378 109.542 13.378C108.926 13.378 108.458 13.6459 108.138 14.1817C107.863 14.6248 107.727 15.1649 107.727 15.8033C107.727 16.4232 107.864 16.9547 108.138 17.3979C108.47 17.9337 108.931 18.2016 109.528 18.2016C110.112 18.2016 110.57 17.9294 110.9 17.3836C111.185 16.9319 111.325 16.3961 111.325 15.7762Z" fill="white"/>
<path d="M120.328 19.1421H118.953L118.839 18.3683H118.797C118.326 18.9853 117.655 19.2946 116.784 19.2946C116.134 19.2946 115.608 19.0908 115.212 18.6861C114.852 18.3184 114.672 17.861 114.672 17.3181C114.672 16.4973 115.023 15.8717 115.729 15.4385C116.433 15.0053 117.424 14.793 118.7 14.803V14.6776C118.7 13.7926 118.224 13.3509 117.269 13.3509C116.59 13.3509 115.991 13.5176 115.473 13.8482L115.162 12.8678C115.802 12.4816 116.593 12.2878 117.525 12.2878C119.326 12.2878 120.229 13.2141 120.229 15.0666V17.5404C120.229 18.2116 120.263 18.7459 120.328 19.1421ZM118.738 16.8336V15.7976C117.049 15.7691 116.204 16.2208 116.204 17.1514C116.204 17.5019 116.3 17.7641 116.498 17.9394C116.695 18.1147 116.946 18.2016 117.246 18.2016C117.582 18.2016 117.896 18.0976 118.183 17.8909C118.471 17.6829 118.648 17.4193 118.713 17.0958C118.73 17.0231 118.738 16.9348 118.738 16.8336Z" fill="white"/>
<path d="M129.032 19.142H127.673L127.601 18.0633H127.559C127.125 18.8841 126.385 19.2945 125.346 19.2945C124.516 19.2945 123.824 18.9767 123.276 18.3412C122.728 17.7056 122.455 16.8805 122.455 15.8674C122.455 14.7801 122.752 13.8994 123.348 13.2268C123.925 12.5998 124.633 12.2863 125.475 12.2863C126.4 12.2863 127.047 12.5899 127.415 13.1983H127.445V9.34229H128.978V17.3323C128.978 17.9863 128.995 18.5891 129.032 19.142ZM127.445 16.3091V15.1891C127.445 14.9953 127.43 14.8385 127.402 14.7188C127.316 14.3597 127.13 14.0576 126.848 13.8139C126.563 13.5703 126.22 13.4477 125.824 13.4477C125.252 13.4477 124.805 13.6686 124.476 14.1118C124.15 14.5549 123.985 15.1207 123.985 15.8118C123.985 16.4758 124.142 17.0145 124.456 17.4292C124.788 17.8709 125.235 18.0918 125.795 18.0918C126.297 18.0918 126.699 17.908 127.005 17.5389C127.3 17.1983 127.445 16.7879 127.445 16.3091Z" fill="white"/>
<path d="M142.132 15.7278C142.132 16.7609 141.829 17.6074 141.224 18.2714C140.59 18.954 139.751 19.2946 138.7 19.2946C137.69 19.2946 136.885 18.9682 136.283 18.3127C135.683 17.6587 135.384 16.8336 135.384 15.8389C135.384 14.7987 135.692 13.9451 136.312 13.2825C136.932 12.6199 137.765 12.2878 138.815 12.2878C139.825 12.2878 140.639 12.6142 141.253 13.2682C141.838 13.9038 142.132 14.7246 142.132 15.7278ZM140.544 15.7762C140.544 15.1564 140.407 14.6248 140.134 14.1817C139.811 13.6459 139.355 13.378 138.758 13.378C138.145 13.378 137.677 13.6459 137.354 14.1817C137.079 14.6248 136.943 15.1649 136.943 15.8033C136.943 16.4232 137.081 16.9547 137.354 17.3979C137.686 17.9337 138.148 18.2016 138.744 18.2016C139.328 18.2016 139.789 17.9294 140.119 17.3836C140.401 16.9319 140.544 16.3961 140.544 15.7762Z" fill="white"/>
<path d="M150.367 19.1421H148.837V15.2946C148.837 14.109 148.375 13.5162 147.447 13.5162C146.993 13.5162 146.626 13.6786 146.342 14.005C146.059 14.3313 145.917 14.716 145.917 15.1564V19.1407H144.384V14.3441C144.384 13.7542 144.366 13.1143 144.33 12.4218H145.674L145.746 13.472H145.788C145.968 13.1457 146.234 12.8764 146.582 12.6612C146.999 12.4104 147.462 12.2836 147.972 12.2836C148.614 12.2836 149.149 12.4859 149.574 12.892C150.104 13.3894 150.367 14.1318 150.367 15.1179V19.1421Z" fill="white"/>
<path d="M160.676 13.5433H158.989V16.8065C158.989 17.6359 159.289 18.0506 159.882 18.0506C160.157 18.0506 160.385 18.0278 160.565 17.9807L160.604 19.1136C160.302 19.2248 159.904 19.2803 159.414 19.2803C158.809 19.2803 158.339 19.1008 157.998 18.7417C157.656 18.3826 157.487 17.7784 157.487 16.9305V13.5433H156.48V12.4247H157.487V11.1935L158.988 10.7517V12.4232H160.674V13.5433H160.676Z" fill="white"/>
<path d="M168.784 19.142H167.251V15.323C167.251 14.1189 166.789 13.5161 165.864 13.5161C165.154 13.5161 164.669 13.8652 164.403 14.5635C164.357 14.7103 164.331 14.8898 164.331 15.1007V19.1406H162.801V9.34229H164.331V13.3907H164.36C164.843 12.654 165.534 12.2863 166.43 12.2863C167.064 12.2863 167.589 12.4887 168.005 12.8948C168.524 13.4007 168.784 14.1531 168.784 15.1477V19.142Z" fill="white"/>
<path d="M177.149 15.4656C177.149 15.7335 177.128 15.9586 177.092 16.1425H172.498C172.519 16.8065 172.738 17.3124 173.163 17.6629C173.552 17.9764 174.053 18.1332 174.667 18.1332C175.347 18.1332 175.966 18.0277 176.525 17.8154L176.764 18.8528C176.111 19.1293 175.342 19.2675 174.452 19.2675C173.385 19.2675 172.545 18.9611 171.937 18.3484C171.326 17.7356 171.023 16.9134 171.023 15.8817C171.023 14.8685 171.305 14.0249 171.874 13.3523C172.467 12.6341 173.27 12.275 174.283 12.275C175.274 12.275 176.026 12.6341 176.535 13.3523C176.946 13.9223 177.149 14.6277 177.149 15.4656ZM175.687 15.0794C175.699 14.6362 175.598 14.2543 175.39 13.9323C175.124 13.5176 174.72 13.3096 174.172 13.3096C173.672 13.3096 173.264 13.5119 172.953 13.918C172.698 14.2415 172.548 14.6277 172.498 15.0794H175.687Z" fill="white"/>
<path d="M78.4042 44.8931H75.0851L73.2669 39.3228H66.9472L65.2153 44.8931H61.9838L68.2451 25.9292H72.1123L78.4042 44.8931ZM72.7188 36.9858L71.0746 32.0339C70.9007 31.528 70.5748 30.3367 70.0939 28.4614H70.0355C69.844 29.268 69.5356 30.4593 69.1118 32.0339L67.4968 36.9858H72.7188Z" fill="white"/>
<path d="M94.506 37.8878C94.506 40.2134 93.8614 42.0517 92.5724 43.4012C91.4178 44.6024 89.984 45.2024 88.2725 45.2024C86.4251 45.2024 85.0981 44.5554 84.2898 43.2615H84.2314V50.4649H81.1154V35.7204C81.1154 34.2584 81.0759 32.7578 80.9999 31.2188H83.7403L83.9142 33.3863H83.9727C85.0118 31.7532 86.5888 30.9381 88.7051 30.9381C90.3596 30.9381 91.7408 31.5751 92.8457 32.8505C93.9535 34.1273 94.506 35.8059 94.506 37.8878ZM91.3315 37.999C91.3315 36.668 91.0246 35.5708 90.4078 34.7072C89.7341 33.8066 88.8294 33.3563 87.6952 33.3563C86.9264 33.3563 86.2278 33.6071 85.6038 34.1016C84.9782 34.6004 84.569 35.2516 84.3775 36.0581C84.2811 36.4343 84.2328 36.7421 84.2328 36.9844V39.2644C84.2328 40.259 84.5456 41.0984 85.1711 41.7838C85.7967 42.4692 86.6093 42.8112 87.609 42.8112C88.7826 42.8112 89.6961 42.3695 90.3494 41.4888C91.0041 40.6067 91.3315 39.4439 91.3315 37.999Z" fill="white"/>
<path d="M110.637 37.8878C110.637 40.2134 109.992 42.0517 108.702 43.4012C107.549 44.6024 106.115 45.2024 104.404 45.2024C102.556 45.2024 101.229 44.5554 100.422 43.2615H100.364V50.4649H97.2479V35.7204C97.2479 34.2584 97.2084 32.7578 97.1324 31.2188H99.8728L100.047 33.3863H100.105C101.143 31.7532 102.72 30.9381 104.838 30.9381C106.491 30.9381 107.872 31.5751 108.98 32.8505C110.083 34.1273 110.637 35.8059 110.637 37.8878ZM107.463 37.999C107.463 36.668 107.154 35.5708 106.537 34.7072C105.864 33.8066 104.962 33.3563 103.826 33.3563C103.056 33.3563 102.359 33.6071 101.733 34.1016C101.108 34.6004 100.7 35.2516 100.509 36.0581C100.414 36.4343 100.364 36.7421 100.364 36.9844V39.2644C100.364 40.259 100.677 41.0984 101.299 41.7838C101.925 42.4678 102.737 42.8112 103.74 42.8112C104.914 42.8112 105.827 42.3695 106.48 41.4888C107.135 40.6067 107.463 39.4439 107.463 37.999Z" fill="white"/>
<path d="M128.672 39.575C128.672 41.1881 128.098 42.5006 126.945 43.5137C125.678 44.621 123.914 45.1739 121.647 45.1739C119.554 45.1739 117.876 44.7806 116.606 43.9925L117.328 41.4603C118.696 42.2669 120.197 42.6716 121.832 42.6716C123.006 42.6716 123.919 42.4122 124.576 41.8964C125.229 41.3805 125.555 40.688 125.555 39.8244C125.555 39.0549 125.286 38.4065 124.747 37.8807C124.21 37.3549 123.314 36.8661 122.063 36.4144C118.658 35.1761 116.957 33.362 116.957 30.9766C116.957 29.4176 117.553 28.1394 118.747 27.1448C119.937 26.1487 121.524 25.6514 123.509 25.6514C125.279 25.6514 126.749 25.952 127.923 26.552L127.144 29.0286C126.047 28.4472 124.808 28.1565 123.421 28.1565C122.325 28.1565 121.468 28.4201 120.855 28.9445C120.336 29.4134 120.076 29.9848 120.076 30.6617C120.076 31.4112 120.372 32.0311 120.969 32.5184C121.487 32.9687 122.43 33.4561 123.798 33.9819C125.472 34.6388 126.701 35.4069 127.491 36.2876C128.279 37.1654 128.672 38.264 128.672 39.575Z" fill="white"/>
<path d="M138.975 33.4988H135.54V40.1379C135.54 41.8265 136.145 42.6701 137.358 42.6701C137.915 42.6701 138.377 42.6231 138.742 42.529L138.829 44.8361C138.215 45.0598 137.407 45.1724 136.405 45.1724C135.175 45.1724 134.213 44.8062 133.519 44.0752C132.828 43.3427 132.48 42.1144 132.48 40.3887V33.496H130.434V31.216H132.48V28.7122L135.54 27.8116V31.216H138.975V33.4988Z" fill="white"/>
<path d="M154.471 37.9435C154.471 40.0453 153.855 41.771 152.624 43.1205C151.334 44.5098 149.621 45.2024 147.485 45.2024C145.427 45.2024 143.789 44.5369 142.567 43.206C141.345 41.875 140.734 40.1949 140.734 38.17C140.734 36.051 141.363 34.3154 142.624 32.9659C143.883 31.615 145.581 30.9396 147.716 30.9396C149.774 30.9396 151.43 31.6051 152.68 32.9374C153.875 34.2299 154.471 35.8986 154.471 37.9435ZM151.239 38.0418C151.239 36.7806 150.962 35.6991 150.403 34.7971C149.749 33.7055 148.815 33.1611 147.605 33.1611C146.353 33.1611 145.401 33.7069 144.748 34.7971C144.188 35.7005 143.912 36.7992 143.912 38.0988C143.912 39.3599 144.188 40.4415 144.748 41.3421C145.422 42.4336 146.363 42.978 147.577 42.978C148.767 42.978 149.701 42.4222 150.375 41.3136C150.949 40.3945 151.239 39.3015 151.239 38.0418Z" fill="white"/>
<path d="M164.6 33.8907C164.292 33.8351 163.963 33.8066 163.618 33.8066C162.522 33.8066 161.674 34.2099 161.078 35.0179C160.559 35.7304 160.299 36.631 160.299 37.7183V44.8931H157.184L157.213 35.5252C157.213 33.9491 157.174 32.5142 157.096 31.2203H159.81L159.924 33.8366H160.011C160.34 32.9374 160.858 32.2135 161.569 31.6706C162.263 31.1818 163.013 30.9381 163.821 30.9381C164.109 30.9381 164.369 30.9581 164.6 30.9937V33.8907Z" fill="white"/>
<path d="M178.536 37.409C178.536 37.9534 178.499 38.4122 178.422 38.787H169.074C169.11 40.1379 169.562 41.171 170.43 41.8835C171.218 42.5205 172.236 42.8397 173.488 42.8397C174.872 42.8397 176.134 42.6245 177.27 42.1928L177.758 44.3018C176.431 44.8661 174.864 45.1468 173.056 45.1468C170.882 45.1468 169.175 44.5226 167.932 43.2758C166.693 42.0289 166.072 40.3545 166.072 38.2541C166.072 36.1921 166.649 34.475 167.805 33.1055C169.015 31.6435 170.651 30.9125 172.709 30.9125C174.73 30.9125 176.26 31.6435 177.299 33.1055C178.122 34.2669 178.536 35.7033 178.536 37.409ZM175.564 36.621C175.585 35.7204 175.382 34.9424 174.959 34.2854C174.42 33.4404 173.591 33.0186 172.476 33.0186C171.457 33.0186 170.629 33.4305 169.996 34.257C169.477 34.9139 169.169 35.7019 169.074 36.6196H175.564V36.621Z" fill="white"/>
<path d="M409.231 57H226.538C222.521 57 219.231 53.792 219.231 49.875V7.125C219.231 3.20803 222.521 6.50331e-07 226.538 6.50331e-07H409.231C413.248 6.50331e-07 416.538 3.20803 416.538 7.125V49.875C416.538 53.792 413.248 57 409.231 57Z" fill="url(#paint1_linear_1_442)"/>
<path d="M409.231 1.14178C412.614 1.14178 415.367 3.82613 415.367 7.125V49.875C415.367 53.1739 412.614 55.8582 409.231 55.8582H226.538C223.155 55.8582 220.402 53.1739 220.402 49.875V7.125C220.402 3.82613 223.155 1.14178 226.538 1.14178H409.231ZM409.231 6.50331e-07H226.538C222.521 6.50331e-07 219.231 3.20803 219.231 7.125V49.875C219.231 53.792 222.521 57 226.538 57H409.231C413.248 57 416.538 53.792 416.538 49.875V7.125C416.538 3.20803 413.248 6.50331e-07 409.231 6.50331e-07Z" fill="white"/>
<path d="M233.386 10.7427C232.956 11.1809 232.708 11.8631 232.708 12.7466V44.2605C232.708 45.144 232.956 45.8262 233.386 46.2644L233.492 46.3606L251.604 28.7084V28.2916L233.492 10.6394L233.386 10.7427Z" fill="white"/>
<path d="M259.827 34.5953L253.796 28.7083V28.2915L259.834 22.4045L259.969 22.4811L267.12 26.4479C269.161 27.5736 269.161 29.4261 267.12 30.559L259.969 34.5187L259.827 34.5953Z" fill="white"/>
<path d="M258.873 35.615L252.7 29.5961L234.482 47.3605C235.16 48.0552 236.265 48.1389 237.522 47.4443L258.873 35.615Z" fill="white"/>
<path d="M258.873 21.385L237.522 9.55569C236.265 8.86813 235.16 8.95184 234.482 9.64653L252.7 27.4038L258.873 21.385Z" fill="white"/>
<path d="M288.533 14.5973C288.533 15.7872 288.168 16.7402 287.448 17.4509C286.62 18.2934 285.543 18.7173 284.222 18.7173C282.959 18.7173 281.881 18.2863 280.997 17.4366C280.111 16.5745 279.669 15.5164 279.669 14.25C279.669 12.9835 280.111 11.9254 280.997 11.0704C281.881 10.2137 282.959 9.78259 284.222 9.78259C284.85 9.78259 285.449 9.90906 286.021 10.1442C286.591 10.3811 287.055 10.7017 287.391 11.0972L286.628 11.8488C286.041 11.1738 285.243 10.8407 284.222 10.8407C283.301 10.8407 282.503 11.1542 281.825 11.7865C281.154 12.4206 280.818 13.2418 280.818 14.25C280.818 15.2582 281.154 16.0864 281.825 16.7206C282.503 17.3458 283.301 17.6664 284.222 17.6664C285.199 17.6664 286.021 17.3458 286.67 16.7134C287.097 16.2948 287.34 15.7177 287.404 14.9803H284.222V13.9507H288.467C288.519 14.1734 288.533 14.3889 288.533 14.5973Z" fill="white" stroke="white" stroke-opacity="0.2" stroke-width="0.175385" stroke-miterlimit="10"/>
<path d="M295.269 11.0275H291.281V13.735H294.876V14.7646H291.281V17.4721H295.269V18.5213H290.152V9.97839H295.269V11.0275Z" fill="white" stroke="white" stroke-opacity="0.2" stroke-width="0.175385" stroke-miterlimit="10"/>
<path d="M300.023 18.5213H298.894V11.0275H296.447V9.97839H302.471V11.0275H300.023V18.5213Z" fill="white" stroke="white" stroke-opacity="0.2" stroke-width="0.175385" stroke-miterlimit="10"/>
<path d="M306.83 18.5213V9.97839H307.957V18.5213H306.83Z" fill="white" stroke="white" stroke-opacity="0.2" stroke-width="0.175385" stroke-miterlimit="10"/>
<path d="M312.954 18.5213H311.834V11.0275H309.378V9.97839H315.409V11.0275H312.954V18.5213Z" fill="white" stroke="white" stroke-opacity="0.2" stroke-width="0.175385" stroke-miterlimit="10"/>
<path d="M326.813 17.4224C325.949 18.2863 324.878 18.7173 323.601 18.7173C322.317 18.7173 321.246 18.2863 320.382 17.4224C319.52 16.5602 319.09 15.5022 319.09 14.25C319.09 12.9977 319.52 11.9397 320.382 11.0776C321.246 10.2137 322.317 9.78259 323.601 9.78259C324.871 9.78259 325.941 10.2137 326.805 11.0847C327.675 11.9539 328.104 13.0049 328.104 14.25C328.104 15.5022 327.675 16.5602 326.813 17.4224ZM321.217 16.7063C321.867 17.3458 322.658 17.6664 323.601 17.6664C324.536 17.6664 325.335 17.3458 325.978 16.7063C326.626 16.0668 326.955 15.2457 326.955 14.25C326.955 13.2542 326.626 12.4331 325.978 11.7936C325.335 11.1542 324.536 10.8335 323.601 10.8335C322.658 10.8335 321.867 11.1542 321.217 11.7936C320.568 12.4331 320.24 13.2542 320.24 14.25C320.24 15.2457 320.568 16.0668 321.217 16.7063Z" fill="white" stroke="white" stroke-opacity="0.2" stroke-width="0.175385" stroke-miterlimit="10"/>
<path d="M329.688 18.5213V9.97839H331.059L335.319 16.6225H335.368L335.319 14.9801V9.97839H336.446V18.5213H335.27L330.808 11.5495H330.759L330.808 13.1989V18.5213H329.688Z" fill="white" stroke="white" stroke-opacity="0.2" stroke-width="0.175385" stroke-miterlimit="10"/>
<path d="M318.813 30.9973C315.38 30.9973 312.576 33.5445 312.576 37.0589C312.576 40.5448 315.38 43.1187 318.813 43.1187C322.253 43.1187 325.057 40.5448 325.057 37.0589C325.057 33.5445 322.253 30.9973 318.813 30.9973ZM318.813 40.7318C316.929 40.7318 315.309 39.216 315.309 37.0589C315.309 34.8733 316.929 33.3842 318.813 33.3842C320.696 33.3842 322.324 34.8733 322.324 37.0589C322.324 39.216 320.696 40.7318 318.813 40.7318ZM305.204 30.9973C301.764 30.9973 298.967 33.5445 298.967 37.0589C298.967 40.5448 301.764 43.1187 305.204 43.1187C308.642 43.1187 311.441 40.5448 311.441 37.0589C311.441 33.5445 308.642 30.9973 305.204 30.9973ZM305.204 40.7318C303.319 40.7318 301.693 39.216 301.693 37.0589C301.693 34.8733 303.319 33.3842 305.204 33.3842C307.087 33.3842 308.708 34.8733 308.708 37.0589C308.708 39.216 307.087 40.7318 305.204 40.7318ZM289.01 32.8551V35.4308H295.318C295.134 36.8701 294.641 37.9281 293.884 38.6656C292.964 39.5562 291.529 40.5448 289.01 40.5448C285.128 40.5448 282.088 37.49 282.088 33.7048C282.088 29.9197 285.128 26.8648 289.01 26.8648C291.109 26.8648 292.637 27.6646 293.764 28.7013L295.625 26.8862C294.049 25.4184 291.951 24.2909 289.01 24.2909C283.686 24.2909 279.212 28.5142 279.212 33.7048C279.212 38.8954 283.686 43.1187 289.01 43.1187C291.887 43.1187 294.049 42.1996 295.748 40.4753C297.489 38.7778 298.031 36.3909 298.031 34.4636C298.031 33.8651 297.98 33.3147 297.889 32.8551H289.01ZM355.229 34.8519C354.715 33.4964 353.131 30.9973 349.905 30.9973C346.708 30.9973 344.046 33.4536 344.046 37.0589C344.046 40.454 346.681 43.1187 350.212 43.1187C353.067 43.1187 354.715 41.4212 355.393 40.4326L353.274 39.0557C352.567 40.0639 351.604 40.7318 350.212 40.7318C348.829 40.7318 347.837 40.1137 347.201 38.8954L355.516 35.5413L355.229 34.8519ZM346.752 36.8701C346.681 34.5331 348.613 33.3361 349.998 33.3361C351.083 33.3361 352.004 33.8651 352.311 34.6221L346.752 36.8701ZM339.994 42.75H342.727V24.9375H339.994V42.75ZM335.518 32.3475H335.427C334.813 31.6386 333.642 30.9973 332.158 30.9973C329.045 30.9973 326.199 33.6621 326.199 37.0785C326.199 40.4753 329.045 43.1187 332.158 43.1187C333.642 43.1187 334.813 42.4721 335.427 41.7418H335.518V42.6111C335.518 44.9285 334.248 46.1736 332.2 46.1736C330.531 46.1736 329.495 44.9979 329.067 44.0093L326.69 44.9766C327.375 46.5832 329.19 48.5604 332.2 48.5604C335.405 48.5604 338.109 46.7222 338.109 42.2495V31.366H335.518V32.3475ZM332.392 40.7318C330.509 40.7318 328.932 39.1946 328.932 37.0785C328.932 34.9428 330.509 33.3842 332.392 33.3842C334.248 33.3842 335.712 34.9428 335.712 37.0785C335.712 39.1946 334.248 40.7318 332.392 40.7318ZM368.024 24.9375H361.488V42.75H364.214V36.0008H368.024C371.052 36.0008 374.02 33.8651 374.02 30.4683C374.02 27.0732 371.044 24.9375 368.024 24.9375ZM368.096 33.5231H364.214V27.4152H368.096C370.131 27.4152 371.293 29.0629 371.293 30.4683C371.293 31.847 370.131 33.5231 368.096 33.5231ZM384.945 30.9635C382.976 30.9635 380.928 31.8113 380.086 33.6906L382.505 34.6791C383.025 33.6906 383.983 33.3699 384.995 33.3699C386.409 33.3699 387.843 34.1982 387.865 35.6606V35.8476C387.372 35.5698 386.316 35.1583 385.017 35.1583C382.412 35.1583 379.757 36.5566 379.757 39.1661C379.757 41.553 381.891 43.0902 384.29 43.0902C386.124 43.0902 387.136 42.2833 387.772 41.3446H387.865V42.7215H390.497V35.8886C390.497 32.7305 388.079 30.9635 384.945 30.9635ZM384.617 40.7247C383.725 40.7247 382.483 40.2936 382.483 39.216C382.483 37.8373 384.032 37.3083 385.373 37.3083C386.573 37.3083 387.136 37.5666 387.865 37.9068C387.651 39.5562 386.195 40.7247 384.617 40.7247ZM400.089 31.3536L396.956 39.0753H396.862L393.623 31.3536H390.684L395.551 42.1444L392.774 48.149H395.622L403.121 31.3536H400.089ZM375.519 42.75H378.252V24.9375H375.519V42.75Z" fill="white"/>
<defs>
<linearGradient id="paint0_linear_1_442" x1="-61.2954" y1="77.609" x2="-40.0322" y2="-29.728" gradientUnits="userSpaceOnUse">
<stop stop-color="#0D0D0F"/>
</linearGradient>
<linearGradient id="paint1_linear_1_442" x1="156.138" y1="-22.5349" x2="178.799" y2="88.7756" gradientUnits="userSpaceOnUse">
<stop stop-color="#0D0D0F"/>
</linearGradient>
</defs>
</svg>
