<svg width="40" height="40" viewBox="0 0 40 40" fill="none" xmlns="http://www.w3.org/2000/svg">
<path d="M3.65098 29.3972L3.60776 29.318C1.90047 26.4365 1 23.1371 1 19.773C1 9.42119 9.42119 1 19.7658 1C24.5059 1 29.0298 2.77212 32.5164 5.985L32.5885 6.05704L32.502 6.10746C32.4732 6.12187 32.4372 6.14348 32.4084 6.16509L30.6435 7.74271C29.9591 8.35503 29.2819 8.96015 28.5976 9.57247L27.1784 10.8475C25.9466 11.9425 24.7076 13.0447 23.4757 14.1396C22.2223 15.249 20.7527 15.6452 19.1246 15.3211C18.8149 15.2634 18.5051 15.1986 18.1954 15.1338L17.9576 15.0905C17.2733 14.9609 16.5889 14.824 15.9046 14.6943C15.8613 14.6943 15.8109 14.6943 15.7677 14.6943C15.53 14.6943 15.2778 14.7304 14.9753 14.8096C14.752 14.8744 14.5214 14.9537 14.2909 15.0329C14.2693 15.0401 14.2549 15.0473 14.2333 15.0617L14.2045 15.0761C14.2045 15.0761 14.1829 15.0905 14.1757 15.0977C14.1685 15.105 14.1685 15.105 14.1541 15.1122C14.1396 15.141 14.118 15.1698 14.0892 15.1842C14.0604 15.2778 14.0028 15.3427 13.9091 15.3643L13.0735 16.1135C12.5404 16.5961 12.0001 17.0716 11.4599 17.5542C8.4775 20.2196 5.49514 22.885 2.51279 25.5504C2.51279 25.5648 2.51279 25.5792 2.51279 25.5936C3.20435 25.7305 3.89591 25.8674 4.58027 26.0042C5.53836 26.1915 6.48926 26.3788 7.44016 26.5661L7.87238 26.6526L7.44016 26.7102C7.31769 26.7246 7.19523 26.7534 7.04395 26.7966C6.82784 26.8615 6.61172 26.9263 6.40282 27.0056L6.35239 27.02C6.34519 27.02 6.32357 27.0344 6.30917 27.0416L6.24433 27.0848C6.23713 27.092 6.22993 27.092 6.22272 27.0992C6.20831 27.128 6.1795 27.1568 6.15068 27.1712C6.12907 27.2289 6.08585 27.3225 5.97059 27.3513C5.48794 27.7764 5.01249 28.2014 4.52984 28.6336L3.65098 29.3972ZM19.7658 1.14407C9.50043 1.14407 1.13687 9.50043 1.13687 19.773C1.13687 23.0867 2.01573 26.3284 3.687 29.1739L4.42178 28.5183C4.90444 28.0861 5.38709 27.6539 5.86974 27.2217L5.89135 27.2073L5.91296 27.2001C5.95618 27.1929 5.9922 27.1712 6.00661 27.0848L6.06424 27.0992L6.07865 27.0056L6.10026 26.9911C6.11467 26.9767 6.12907 26.9623 6.15068 26.9551L6.22993 26.9119C6.25154 26.9047 6.27315 26.8903 6.28756 26.8831L6.34519 26.8687C6.55409 26.7966 6.77741 26.7174 6.99352 26.6598C7.01513 26.6526 7.03675 26.6526 7.05115 26.6454C6.22272 26.4797 5.38709 26.314 4.55145 26.1483C3.84548 26.0114 3.13951 25.8674 2.43355 25.7305L2.38312 25.7233L2.37592 25.6729C2.36871 25.6296 2.36151 25.5792 2.35431 25.5288V25.4928L2.38312 25.4712C5.37268 22.7986 8.36944 20.1188 11.359 17.4462C11.8993 16.9707 12.4396 16.4881 12.9726 16.0054L13.8443 15.2274L13.8659 15.2202C13.9163 15.213 13.9524 15.1914 13.9668 15.105L14.0316 15.1194L14.046 15.0257L14.0676 15.0113C14.0748 14.9969 14.0964 14.9897 14.1108 14.9825C14.1252 14.9753 14.1324 14.9681 14.1396 14.9609L14.1829 14.9393C14.2117 14.9249 14.2333 14.9105 14.2621 14.9032C14.4998 14.8168 14.7232 14.7448 14.9609 14.6727C15.3427 14.5719 15.638 14.5359 15.9478 14.5575C16.6394 14.6871 17.3237 14.824 18.0081 14.9537L18.2458 15.0041C18.5628 15.0617 18.8653 15.1266 19.1823 15.1914C20.7671 15.5084 22.1862 15.1194 23.4109 14.046C24.6499 12.951 25.8818 11.8489 27.1136 10.7539L28.5328 9.48602C29.2171 8.8737 29.8943 8.26139 30.5786 7.65627L32.3507 6.06424C32.3651 6.05704 32.3724 6.05704 32.3796 6.04983C28.9001 2.88018 24.4338 1.14407 19.7658 1.14407Z" fill="#D31E15" stroke="#D31E15" stroke-miterlimit="10"/>
<path d="M19.7657 38.546C15.4507 38.546 11.2293 37.0404 7.89394 34.3102L7.8291 34.2526L7.88673 34.195C9.52919 32.7254 11.0276 31.4071 12.4755 30.1537C13.2968 29.4405 14.2765 29.0803 15.393 29.0803C15.602 29.0803 15.8109 29.0875 16.027 29.1163C16.6033 29.1811 17.2732 29.2676 17.9 29.4837C18.5843 29.6062 19.2831 29.7286 19.9818 29.8439C20.1403 29.7863 20.2916 29.7935 20.4213 29.8007C20.4573 29.8007 20.4933 29.8007 20.5365 29.8007C21.3145 29.6206 21.898 29.0803 22.4599 28.5544C22.5824 28.4392 22.7049 28.3311 22.8273 28.2158C26.3355 25.0894 29.7789 22.0134 32.9774 19.1463C32.999 19.1319 33.0134 19.1175 33.035 19.0959C33.0999 19.0455 33.1647 18.9878 33.2007 18.923L32.6965 18.8293C31.2845 18.5484 29.8654 18.2675 28.4535 17.9865C28.4102 17.9793 28.367 17.9721 28.331 17.9649L28.2734 17.9505L28.2878 17.8064C28.3598 17.8064 28.4246 17.8064 28.4895 17.8064C29.2747 17.6263 29.851 17.086 30.4129 16.5674C30.5353 16.4521 30.6578 16.3368 30.7875 16.2216L31.2701 15.7894C32.9774 14.2622 34.6847 12.7422 36.392 11.215L36.4568 11.1501L36.5 11.2366C37.8544 13.8948 38.5459 16.7619 38.5459 19.7586C38.5459 30.1248 30.1175 38.546 19.7657 38.546ZM8.04521 34.2526C11.3517 36.9324 15.5083 38.402 19.7657 38.402C30.0383 38.402 38.3946 30.0456 38.3946 19.773C38.3946 16.8267 37.7319 14.0172 36.4136 11.4023C34.7351 12.9079 33.0422 14.4134 31.3638 15.919L30.8811 16.3513C30.7587 16.4593 30.6362 16.5746 30.5065 16.6898C29.9879 17.1797 29.4476 17.6767 28.7344 17.9073C30.0599 18.1738 31.3998 18.4403 32.7325 18.6997L33.4096 18.8293L33.3808 18.9086C33.3376 19.0527 33.2295 19.1391 33.1359 19.2184C33.1143 19.2328 33.0999 19.2472 33.0783 19.2688C29.8798 22.1287 26.4364 25.2119 22.9282 28.3383C22.8057 28.4464 22.6832 28.5616 22.5608 28.6769C21.9845 29.2172 21.3938 29.7647 20.5509 29.9592C20.4933 29.9592 20.4573 29.9592 20.4213 29.9592C20.2916 29.9592 20.1547 29.9519 20.0034 30.0024L19.989 30.0096H19.9746C19.2687 29.8871 18.5699 29.7647 17.8639 29.6422C17.2372 29.4333 16.6033 29.3468 16.0126 29.282C14.6799 29.1235 13.5129 29.4693 12.5692 30.2833C11.1428 31.5008 9.66606 32.8118 8.04521 34.2526Z" fill="#D31E15" stroke="#D31E15" stroke-miterlimit="10"/>
<path fill-rule="evenodd" clip-rule="evenodd" d="M33.3089 18.887C33.2584 19.0311 33.136 19.1175 33.0279 19.2111C29.6493 22.2367 26.2708 25.2623 22.8778 28.2807C22.1719 28.9074 21.5307 29.6566 20.5438 29.8799C20.3565 29.8799 20.1692 29.8583 19.9891 29.9231C19.2904 29.8007 18.5844 29.6782 17.8784 29.5557C17.2805 29.354 16.6538 29.2676 16.0198 29.1956C14.7088 29.0371 13.4985 29.3612 12.526 30.2185C10.9844 31.5584 9.45722 32.9055 7.93723 34.2598C6.24435 32.8695 4.78919 31.191 3.66541 29.2892C4.4146 28.6193 5.16379 27.9421 5.92018 27.2794C6.01383 27.2649 6.05705 27.1929 6.07866 27.1065H6.06425C6.10748 27.1065 6.12909 27.0921 6.1435 27.056C6.16511 27.0344 6.19392 27.02 6.21553 27.0056C6.25155 26.984 6.28037 26.9696 6.31639 26.9552C6.54691 26.8759 6.77743 26.7967 7.00795 26.7319C7.31051 26.6454 7.63467 26.595 7.96605 26.6166C8.6504 26.7463 9.33476 26.8831 10.0191 27.0056C10.4081 27.0849 10.7971 27.1569 11.1861 27.2433C12.807 27.5675 14.2405 27.1713 15.4724 26.0763C17.1869 24.5635 18.8869 23.0363 20.5942 21.5091C21.8693 20.371 23.1372 19.2328 24.405 18.0946C24.7148 17.8929 25.0317 17.7416 25.3703 17.6479C25.7089 17.5471 26.0691 17.5111 26.4437 17.5399C27.1136 17.6768 27.7764 17.8064 28.4535 17.9361C30.0816 18.253 31.6952 18.5628 33.3089 18.887Z" fill="#D31E15" stroke="#D31E15" stroke-miterlimit="10"/>
<path fill-rule="evenodd" clip-rule="evenodd" d="M36.4353 11.2797C34.5696 12.951 32.6966 14.6223 30.8308 16.2863C30.1176 16.9131 29.4837 17.6623 28.4896 17.8856C28.4247 17.8856 28.3599 17.8856 28.2879 17.8856C27.6756 17.7631 27.0704 17.6479 26.4581 17.5254C26.2204 17.511 25.9971 17.5182 25.781 17.5542C25.1903 17.3669 24.5779 17.2733 23.9656 17.2084C22.6545 17.0499 21.4443 17.3741 20.4646 18.2242C18.8726 19.6073 17.3021 21.0048 15.7245 22.4023C14.4495 23.5405 13.1816 24.6859 11.9065 25.8313C11.3086 26.3716 10.6963 26.8471 9.9111 26.9767C9.26996 26.8543 8.61442 26.7246 7.96608 26.6021C7.77878 26.5877 7.59149 26.6021 7.41139 26.6309C5.75453 26.3068 4.09046 25.9682 2.4336 25.644C2.42639 25.6008 2.42639 25.5576 2.41919 25.5072C5.41595 22.8346 8.40551 20.162 11.4023 17.4894C12.2235 16.7546 13.0447 16.0198 13.866 15.285C13.9668 15.2706 14.0028 15.2058 14.0244 15.1121H14.01C14.0533 15.1193 14.0749 15.0977 14.0893 15.0545C14.1181 15.0401 14.1469 15.0257 14.1685 15.0041C14.2045 14.9897 14.2333 14.9681 14.2694 14.9536C14.4999 14.8744 14.7304 14.7952 14.9609 14.7303C15.2779 14.6439 15.5877 14.5935 15.919 14.6151C16.6034 14.7447 17.2877 14.8816 17.9649 15.0113C18.3539 15.0833 18.7429 15.1626 19.1319 15.2418C20.7527 15.566 22.1863 15.1698 23.4181 14.0748C25.1326 12.562 26.8399 11.0348 28.54 9.51481C29.8151 8.36942 31.0829 7.23122 32.358 6.09303C32.3868 6.07142 32.4156 6.04981 32.4588 6.0354C34.0797 7.53378 35.4268 9.30591 36.4353 11.2797Z" fill="#D31E15" stroke="#D31E15" stroke-miterlimit="10"/>
<path fill-rule="evenodd" clip-rule="evenodd" d="M7.97333 26.6093C8.62167 26.7318 9.27 26.8614 9.91834 26.9839C9.79588 27.0055 9.65901 27.0127 9.52214 27.0199C8.94584 26.9623 8.38394 26.8182 7.81485 26.7102C7.67797 26.6814 7.54831 26.6597 7.41864 26.6309C7.59873 26.6093 7.78603 26.5949 7.97333 26.6093Z" fill="#D31E15" stroke="#D31E15" stroke-miterlimit="10"/>
<path fill-rule="evenodd" clip-rule="evenodd" d="M26.4582 17.5253C27.0633 17.6478 27.6756 17.7703 28.2879 17.8855C28.1727 17.8855 28.0502 17.8855 27.9421 17.9287C27.2362 17.8063 26.5374 17.6838 25.8314 17.5613C25.8098 17.5541 25.8026 17.5541 25.7882 17.5469C25.9971 17.5253 26.2204 17.5109 26.4582 17.5253Z" fill="#D31E15" stroke="#D31E15" stroke-miterlimit="10"/>
</svg>
