<svg width="40" height="40" viewBox="0 0 40 40" fill="none" xmlns="http://www.w3.org/2000/svg">
<path d="M20.773 6.03947L31.7577 8.96872C32.1954 9.08545 32.5 9.4819 32.5 9.93495V22.6222C32.5 24.6284 31.4974 26.5017 29.8282 27.6145L20.5547 33.7969C20.2188 34.0208 19.7812 34.0208 19.4453 33.7969L10.1718 27.6145C8.50261 26.5017 7.5 24.6284 7.5 22.6222V9.93496C7.5 9.4819 7.80458 9.08545 8.24234 8.96872L19.227 6.03947C19.7335 5.90441 20.2665 5.90441 20.773 6.03947Z" stroke="#1D173C" stroke-width="2.5" stroke-linecap="round"/>
<path d="M19.3821 27.6364V11.2727H20.4304V27.6364H19.3821ZM22.4055 16.5078C22.3459 15.9496 22.0945 15.5149 21.6513 15.2038C21.2124 14.8928 20.6413 14.7372 19.9382 14.7372C19.4439 14.7372 19.0199 14.8118 18.6662 14.9609C18.3125 15.1101 18.0419 15.3125 17.8544 15.5682C17.6669 15.8239 17.571 16.1158 17.5668 16.4439C17.5668 16.7166 17.6286 16.9531 17.7521 17.1534C17.88 17.3537 18.0526 17.5241 18.2699 17.6648C18.4872 17.8011 18.728 17.9162 18.9922 18.0099C19.2564 18.1037 19.5227 18.1825 19.7912 18.2464L21.0185 18.5533C21.5128 18.6683 21.9879 18.8239 22.4439 19.0199C22.9041 19.2159 23.3153 19.4631 23.6776 19.7614C24.044 20.0597 24.3338 20.4197 24.5469 20.8416C24.7599 21.2635 24.8665 21.7578 24.8665 22.3246C24.8665 23.0916 24.6705 23.767 24.2784 24.3509C23.8864 24.9304 23.3196 25.3842 22.5781 25.7124C21.8409 26.0362 20.9482 26.1982 19.8999 26.1982C18.8814 26.1982 17.9972 26.0405 17.2472 25.7251C16.5014 25.4098 15.9176 24.9496 15.4957 24.3445C15.0781 23.7393 14.8523 23.0021 14.8182 22.1328H17.1513C17.1854 22.5888 17.326 22.968 17.5732 23.2706C17.8203 23.5732 18.142 23.799 18.5384 23.9482C18.9389 24.0973 19.3864 24.1719 19.8807 24.1719C20.3963 24.1719 20.848 24.0952 21.2358 23.9418C21.6278 23.7841 21.9347 23.5668 22.1562 23.2898C22.3778 23.0085 22.4908 22.6804 22.495 22.3054C22.4908 21.9645 22.3906 21.6832 22.1946 21.4616C21.9986 21.2358 21.7237 21.0483 21.37 20.8991C21.0206 20.7457 20.6115 20.6094 20.1428 20.4901L18.6534 20.1065C17.5753 19.8295 16.723 19.4098 16.0966 18.8473C15.4744 18.2805 15.1634 17.5284 15.1634 16.5909C15.1634 15.8196 15.3722 15.1442 15.7898 14.5646C16.2116 13.9851 16.7848 13.5355 17.5092 13.2159C18.2337 12.892 19.054 12.7301 19.9702 12.7301C20.8991 12.7301 21.7131 12.892 22.4119 13.2159C23.1151 13.5355 23.6669 13.9808 24.0675 14.5518C24.468 15.1186 24.6747 15.7706 24.6875 16.5078H22.4055Z" fill="#D31E15"/>
<rect x="5" y="15" width="5" height="4" fill="white"/>
</svg>
