<svg width="40" height="40" viewBox="0 0 40 40" fill="none" xmlns="http://www.w3.org/2000/svg">
<path d="M12.55 10.8833C12.7708 10.6463 12.891 10.3329 12.8853 10.0091C12.8796 9.68524 12.7484 9.37627 12.5194 9.14724C12.2903 8.91822 11.9814 8.78704 11.6575 8.78132C11.3337 8.77561 11.0203 8.89581 10.7833 9.11661L7.45 12.4499C7.21591 12.6843 7.08443 13.002 7.08443 13.3333C7.08443 13.6645 7.21591 13.9822 7.45 14.2166L10.7833 17.5499C10.8978 17.6728 11.0358 17.7713 11.1891 17.8396C11.3424 17.9079 11.508 17.9446 11.6758 17.9476C11.8436 17.9506 12.0103 17.9197 12.166 17.8568C12.3216 17.794 12.463 17.7004 12.5817 17.5817C12.7004 17.463 12.794 17.3216 12.8569 17.1659C12.9197 17.0103 12.9506 16.8436 12.9477 16.6757C12.9447 16.5079 12.908 16.3424 12.8396 16.1891C12.7713 16.0357 12.6728 15.8977 12.55 15.7833L11.35 14.5833H28.3333C28.6649 14.5833 28.9828 14.4516 29.2172 14.2172C29.4516 13.9827 29.5833 13.6648 29.5833 13.3333C29.5833 13.0018 29.4516 12.6838 29.2172 12.4494C28.9828 12.215 28.6649 12.0833 28.3333 12.0833H11.35L12.55 10.8833ZM27.45 22.4499C27.2159 22.6843 27.0844 23.002 27.0844 23.3333C27.0844 23.6645 27.2159 23.9822 27.45 24.2166L28.65 25.4166H11.6667C11.3351 25.4166 11.0172 25.5483 10.7828 25.7827C10.5484 26.0172 10.4167 26.3351 10.4167 26.6666C10.4167 26.9981 10.5484 27.3161 10.7828 27.5505C11.0172 27.7849 11.3351 27.9166 11.6667 27.9166H28.65L27.45 29.1166C27.3272 29.231 27.2287 29.369 27.1604 29.5224C27.092 29.6757 27.0553 29.8412 27.0523 30.0091C27.0494 30.1769 27.0803 30.3436 27.1431 30.4993C27.206 30.6549 27.2996 30.7963 27.4183 30.915C27.537 31.0337 27.6784 31.1273 27.834 31.1902C27.9897 31.253 28.1564 31.2839 28.3242 31.2809C28.492 31.278 28.6576 31.2412 28.8109 31.1729C28.9642 31.1046 29.1022 31.0061 29.2167 30.8833L32.55 27.5499C32.7841 27.3156 32.9156 26.9979 32.9156 26.6666C32.9156 26.3354 32.7841 26.0177 32.55 25.7833L29.2167 22.4499C28.9823 22.2159 28.6646 22.0844 28.3333 22.0844C28.0021 22.0844 27.6844 22.2159 27.45 22.4499Z" fill="black"/>
</svg>
