<svg width="408" height="100" viewBox="0 0 358 90" fill="none" xmlns="http://www.w3.org/2000/svg">
<rect x="0.5" y="0.5" width="357" height="89" rx="11.5" fill="#FCF7F7" stroke="#E7C5C5"/>
<path d="M78.6052 37.4545V52H76.9007L68.9745 40.5795H68.8325V52H67.0711V37.4545H68.7757L76.7302 48.9034H76.8723V37.4545H78.6052ZM91.2729 42C91.1167 41.5218 90.9107 41.0933 90.655 40.7145C90.4041 40.331 90.1034 40.0043 89.753 39.7344C89.4074 39.4645 89.0144 39.2585 88.574 39.1165C88.1337 38.9744 87.6507 38.9034 87.1252 38.9034C86.2634 38.9034 85.4798 39.1259 84.7743 39.571C84.0688 40.0161 83.5078 40.6719 83.0911 41.5384C82.6744 42.4048 82.4661 43.4678 82.4661 44.7273C82.4661 45.9867 82.6768 47.0497 83.0982 47.9162C83.5196 48.7827 84.0901 49.4384 84.8098 49.8835C85.5295 50.3286 86.3392 50.5511 87.2388 50.5511C88.0721 50.5511 88.806 50.3736 89.4405 50.0185C90.0797 49.6586 90.5769 49.152 90.932 48.4986C91.2918 47.8404 91.4718 47.0663 91.4718 46.1761L92.0115 46.2898H87.6365V44.7273H93.1763V46.2898C93.1763 47.4877 92.9206 48.5294 92.4093 49.4148C91.9026 50.3002 91.2019 50.9867 90.307 51.4744C89.4168 51.9574 88.3941 52.1989 87.2388 52.1989C85.9509 52.1989 84.8193 51.8958 83.8439 51.2898C82.8733 50.6837 82.1157 49.822 81.5712 48.7045C81.0314 47.5871 80.7615 46.2614 80.7615 44.7273C80.7615 43.5767 80.9154 42.5421 81.2232 41.6236C81.5357 40.7003 81.976 39.9143 82.5442 39.2656C83.1124 38.617 83.7847 38.1198 84.5613 37.7741C85.3378 37.4285 86.1924 37.2557 87.1252 37.2557C87.8922 37.2557 88.6072 37.3717 89.2701 37.6037C89.9377 37.831 90.5319 38.1553 91.0527 38.5767C91.5783 38.9934 92.0163 39.4929 92.3667 40.0753C92.717 40.6529 92.9585 41.2945 93.0911 42H91.2729ZM106.927 37.4545V52H105.223L97.2964 40.5795H97.1544V52H95.393V37.4545H97.0975L105.052 48.9034H105.194V37.4545H106.927Z" fill="#565656"/>
<path d="M18.25 46C18.25 54.1875 23.5 61.125 30.75 63.6875V28.3125C23.5 30.875 18.25 37.8125 18.25 46ZM55.75 46C55.75 37.8125 50.5625 30.875 43.25 28.3125V63.6875C50.5625 61.125 55.75 54.1875 55.75 46Z" fill="#83BF4F"/>
<path d="M30.75 63.6875C32.6875 64.375 34.8125 64.75 37 64.75C39.1875 64.75 41.3125 64.375 43.25 63.6875V28.3125C41.3125 27.625 39.1875 27.25 37 27.25C34.8125 27.25 32.6875 27.625 30.75 28.3125V63.6875Z" fill="#F9F9F9"/>
<path d="M135.186 57.3182C133.474 57.3182 132.016 56.8523 130.811 55.9205C129.607 54.9811 128.686 53.6212 128.05 51.8409C127.414 50.053 127.095 47.8939 127.095 45.3636C127.095 42.8485 127.414 40.7008 128.05 38.9205C128.694 37.1326 129.618 35.7689 130.823 34.8295C132.035 33.8826 133.489 33.4091 135.186 33.4091C136.883 33.4091 138.334 33.8826 139.539 34.8295C140.751 35.7689 141.675 37.1326 142.311 38.9205C142.955 40.7008 143.277 42.8485 143.277 45.3636C143.277 47.8939 142.959 50.053 142.323 51.8409C141.686 53.6212 140.766 54.9811 139.561 55.9205C138.357 56.8523 136.898 57.3182 135.186 57.3182ZM135.186 54.8182C136.883 54.8182 138.201 54 139.141 52.3636C140.08 50.7273 140.55 48.3939 140.55 45.3636C140.55 43.3485 140.334 41.6326 139.902 40.2159C139.478 38.7992 138.864 37.7197 138.061 36.9773C137.266 36.2348 136.307 35.8636 135.186 35.8636C133.504 35.8636 132.19 36.6932 131.243 38.3523C130.296 40.0038 129.823 42.3409 129.823 45.3636C129.823 47.3788 130.035 49.0909 130.459 50.5C130.883 51.9091 131.493 52.9811 132.289 53.7159C133.092 54.4508 134.057 54.8182 135.186 54.8182ZM147.503 57.1818C146.942 57.1818 146.461 56.9811 146.06 56.5795C145.658 56.178 145.457 55.697 145.457 55.1364C145.457 54.5758 145.658 54.0947 146.06 53.6932C146.461 53.2917 146.942 53.0909 147.503 53.0909C148.063 53.0909 148.545 53.2917 148.946 53.6932C149.348 54.0947 149.548 54.5758 149.548 55.1364C149.548 55.5076 149.454 55.8485 149.264 56.1591C149.082 56.4697 148.836 56.7197 148.526 56.9091C148.223 57.0909 147.882 57.1818 147.503 57.1818ZM159.814 57.3182C158.102 57.3182 156.643 56.8523 155.439 55.9205C154.234 54.9811 153.314 53.6212 152.677 51.8409C152.041 50.053 151.723 47.8939 151.723 45.3636C151.723 42.8485 152.041 40.7008 152.677 38.9205C153.321 37.1326 154.246 35.7689 155.45 34.8295C156.662 33.8826 158.117 33.4091 159.814 33.4091C161.511 33.4091 162.961 33.8826 164.166 34.8295C165.378 35.7689 166.302 37.1326 166.939 38.9205C167.583 40.7008 167.905 42.8485 167.905 45.3636C167.905 47.8939 167.586 50.053 166.95 51.8409C166.314 53.6212 165.393 54.9811 164.189 55.9205C162.984 56.8523 161.526 57.3182 159.814 57.3182ZM159.814 54.8182C161.511 54.8182 162.829 54 163.768 52.3636C164.708 50.7273 165.177 48.3939 165.177 45.3636C165.177 43.3485 164.961 41.6326 164.53 40.2159C164.105 38.7992 163.492 37.7197 162.689 36.9773C161.893 36.2348 160.935 35.8636 159.814 35.8636C158.132 35.8636 156.818 36.6932 155.871 38.3523C154.924 40.0038 154.45 42.3409 154.45 45.3636C154.45 47.3788 154.662 49.0909 155.086 50.5C155.511 51.9091 156.121 52.9811 156.916 53.7159C157.719 54.4508 158.685 54.8182 159.814 54.8182Z" fill="#B7B7B7"/>
</svg>
