<svg width="358" height="90" viewBox="0 0 358 90" fill="none" xmlns="http://www.w3.org/2000/svg">
<rect x="0.5" y="0.5" width="357" height="89" rx="11.5" fill="#FCF7F7" stroke="#E7C5C5"/>
<path d="M79.5452 42H77.7838C77.6797 41.4934 77.4974 41.0483 77.237 40.6648C76.9813 40.2812 76.6688 39.9593 76.2995 39.6989C75.9349 39.4337 75.5301 39.2348 75.085 39.1023C74.6399 38.9697 74.1759 38.9034 73.6929 38.9034C72.8123 38.9034 72.0144 39.1259 71.2995 39.571C70.5892 40.0161 70.0234 40.6719 69.602 41.5384C69.1854 42.4048 68.977 43.4678 68.977 44.7273C68.977 45.9867 69.1854 47.0497 69.602 47.9162C70.0234 48.7827 70.5892 49.4384 71.2995 49.8835C72.0144 50.3286 72.8123 50.5511 73.6929 50.5511C74.1759 50.5511 74.6399 50.4848 75.085 50.3523C75.5301 50.2197 75.9349 50.0232 76.2995 49.7628C76.6688 49.4976 76.9813 49.1733 77.237 48.7898C77.4974 48.4015 77.6797 47.9564 77.7838 47.4545H79.5452C79.4126 48.1979 79.1712 48.8632 78.8208 49.4503C78.4704 50.0374 78.0348 50.5369 77.514 50.9489C76.9931 51.3561 76.4084 51.6662 75.7597 51.8793C75.1158 52.0923 74.4268 52.1989 73.6929 52.1989C72.4524 52.1989 71.3492 51.8958 70.3833 51.2898C69.4174 50.6837 68.6574 49.822 68.1034 48.7045C67.5495 47.5871 67.2725 46.2614 67.2725 44.7273C67.2725 43.1932 67.5495 41.8674 68.1034 40.75C68.6574 39.6326 69.4174 38.7708 70.3833 38.1648C71.3492 37.5587 72.4524 37.2557 73.6929 37.2557C74.4268 37.2557 75.1158 37.3622 75.7597 37.5753C76.4084 37.7884 76.9931 38.1009 77.514 38.5128C78.0348 38.92 78.4704 39.4171 78.8208 40.0043C79.1712 40.5866 79.4126 41.2519 79.5452 42ZM82.188 52H80.3414L85.6824 37.4545H87.5005L92.8414 52H90.9948L86.6483 39.7557H86.5346L82.188 52ZM82.8698 46.3182H90.313V47.8807H82.8698V46.3182ZM98.7957 52H94.3071V37.4545H98.9946C100.406 37.4545 101.613 37.7457 102.617 38.3281C103.621 38.9058 104.39 39.7367 104.925 40.821C105.46 41.9006 105.728 43.1932 105.728 44.6989C105.728 46.214 105.458 47.5185 104.918 48.6122C104.378 49.7012 103.592 50.5393 102.56 51.1264C101.528 51.7088 100.273 52 98.7957 52ZM96.0684 50.4375H98.6821C99.8847 50.4375 100.881 50.2055 101.672 49.7415C102.463 49.2775 103.052 48.617 103.441 47.7599C103.829 46.9029 104.023 45.8826 104.023 44.6989C104.023 43.5246 103.831 42.5137 103.448 41.6662C103.064 40.8139 102.491 40.1605 101.729 39.706C100.967 39.2467 100.017 39.017 98.8809 39.017H96.0684V50.4375Z" fill="#565656"/>
<path d="M48 29.125C45.125 27.3125 41.6875 26.25 38 26.25C34.3125 26.25 30.875 27.3125 28 29.125V60.8125C30.875 62.625 34.3125 63.6875 38 63.6875C41.6875 63.6875 45.125 62.625 48 60.8125V29.125Z" fill="#F9F9F9"/>
<path d="M48 29.125V60.8125C53.25 57.5625 56.75 51.5625 56.75 44.9375C56.75 38.3125 53.25 32.4375 48 29.125ZM28 29.125C22.75 32.4375 19.25 38.4375 19.25 45C19.25 51.5625 22.75 57.5625 28 60.875V29.125ZM44.8125 44.75C44.5625 44.625 44.5 44.375 44.5625 44.25L45.1875 42L43 42.4375C42.9375 42.4375 42.6875 42.4375 42.625 42L42.4375 41.25L40.9375 43C40.9375 43 39.9375 44.0625 40.25 42.4375L40.875 39L39.6875 39.625C39.625 39.625 39.375 39.6875 39.0625 39.0625L38 36.875L36.875 38.9375C36.5625 39.5625 36.3125 39.5 36.25 39.5L35.0625 38.875L35.6875 42.3125C36 43.9375 35 42.875 35 42.875L33.5 41.125L33.3125 41.875C33.1875 42.3125 33 42.3125 32.9375 42.3125L30.75 41.875L31.375 44.125C31.375 44.3125 31.375 44.5 31.125 44.625L30.5 45C30.5 45 33 47 33.8125 47.6875C34 47.8125 34.375 48.1875 34.25 48.625L33.9375 49.5L37.375 49C37.5625 49 37.9375 49 37.875 49.5625L37.6875 53.125H38.3125L38.125 49.5625C38.125 49 38.5 49 38.625 49L42.0625 49.5L41.75 48.625C41.625 48.1875 42 47.8125 42.1875 47.6875C43 47 45.5 45 45.5 45L44.8125 44.75Z" fill="#ED4C5C"/>
<path d="M137.186 58.3182C135.474 58.3182 134.016 57.8523 132.811 56.9205C131.607 55.9811 130.686 54.6212 130.05 52.8409C129.414 51.053 129.095 48.8939 129.095 46.3636C129.095 43.8485 129.414 41.7008 130.05 39.9205C130.694 38.1326 131.618 36.7689 132.823 35.8295C134.035 34.8826 135.489 34.4091 137.186 34.4091C138.883 34.4091 140.334 34.8826 141.539 35.8295C142.751 36.7689 143.675 38.1326 144.311 39.9205C144.955 41.7008 145.277 43.8485 145.277 46.3636C145.277 48.8939 144.959 51.053 144.323 52.8409C143.686 54.6212 142.766 55.9811 141.561 56.9205C140.357 57.8523 138.898 58.3182 137.186 58.3182ZM137.186 55.8182C138.883 55.8182 140.201 55 141.141 53.3636C142.08 51.7273 142.55 49.3939 142.55 46.3636C142.55 44.3485 142.334 42.6326 141.902 41.2159C141.478 39.7992 140.864 38.7197 140.061 37.9773C139.266 37.2348 138.307 36.8636 137.186 36.8636C135.504 36.8636 134.19 37.6932 133.243 39.3523C132.296 41.0038 131.823 43.3409 131.823 46.3636C131.823 48.3788 132.035 50.0909 132.459 51.5C132.883 52.9091 133.493 53.9811 134.289 54.7159C135.092 55.4508 136.057 55.8182 137.186 55.8182ZM149.503 58.1818C148.942 58.1818 148.461 57.9811 148.06 57.5795C147.658 57.178 147.457 56.697 147.457 56.1364C147.457 55.5758 147.658 55.0947 148.06 54.6932C148.461 54.2917 148.942 54.0909 149.503 54.0909C150.063 54.0909 150.545 54.2917 150.946 54.6932C151.348 55.0947 151.548 55.5758 151.548 56.1364C151.548 56.5076 151.454 56.8485 151.264 57.1591C151.082 57.4697 150.836 57.7197 150.526 57.9091C150.223 58.0909 149.882 58.1818 149.503 58.1818ZM161.814 58.3182C160.102 58.3182 158.643 57.8523 157.439 56.9205C156.234 55.9811 155.314 54.6212 154.677 52.8409C154.041 51.053 153.723 48.8939 153.723 46.3636C153.723 43.8485 154.041 41.7008 154.677 39.9205C155.321 38.1326 156.246 36.7689 157.45 35.8295C158.662 34.8826 160.117 34.4091 161.814 34.4091C163.511 34.4091 164.961 34.8826 166.166 35.8295C167.378 36.7689 168.302 38.1326 168.939 39.9205C169.583 41.7008 169.905 43.8485 169.905 46.3636C169.905 48.8939 169.586 51.053 168.95 52.8409C168.314 54.6212 167.393 55.9811 166.189 56.9205C164.984 57.8523 163.526 58.3182 161.814 58.3182ZM161.814 55.8182C163.511 55.8182 164.829 55 165.768 53.3636C166.708 51.7273 167.177 49.3939 167.177 46.3636C167.177 44.3485 166.961 42.6326 166.53 41.2159C166.105 39.7992 165.492 38.7197 164.689 37.9773C163.893 37.2348 162.935 36.8636 161.814 36.8636C160.132 36.8636 158.818 37.6932 157.871 39.3523C156.924 41.0038 156.45 43.3409 156.45 46.3636C156.45 48.3788 156.662 50.0909 157.086 51.5C157.511 52.9091 158.121 53.9811 158.916 54.7159C159.719 55.4508 160.685 55.8182 161.814 55.8182Z" fill="#B7B7B7"/>
</svg>
