<svg width="40" height="40" viewBox="0 0 40 40" fill="none" xmlns="http://www.w3.org/2000/svg">
<path d="M19.5781 31V11H20.8594V31H19.5781ZM23.2734 17.3984C23.2005 16.7161 22.8932 16.1849 22.3516 15.8047C21.8151 15.4245 21.1172 15.2344 20.2578 15.2344C19.6536 15.2344 19.1354 15.3255 18.7031 15.5078C18.2708 15.6901 17.9401 15.9375 17.7109 16.25C17.4818 16.5625 17.3646 16.9193 17.3594 17.3203C17.3594 17.6536 17.4349 17.9427 17.5859 18.1875C17.7422 18.4323 17.9531 18.6406 18.2188 18.8125C18.4844 18.9792 18.7786 19.1198 19.1016 19.2344C19.4245 19.349 19.75 19.4453 20.0781 19.5234L21.5781 19.8984C22.1823 20.0391 22.763 20.2292 23.3203 20.4687C23.8828 20.7083 24.3854 21.0104 24.8281 21.375C25.276 21.7396 25.6302 22.1797 25.8906 22.6953C26.151 23.2109 26.2813 23.8151 26.2813 24.5078C26.2813 25.4453 26.0417 26.2708 25.5625 26.9844C25.0833 27.6927 24.3906 28.2474 23.4844 28.6484C22.5833 29.0443 21.4922 29.2422 20.2109 29.2422C18.9661 29.2422 17.8854 29.0495 16.9688 28.6641C16.0573 28.2786 15.3438 27.7161 14.8281 26.9766C14.3177 26.237 14.0417 25.3359 14 24.2734H16.8516C16.8932 24.8307 17.0651 25.2943 17.3672 25.6641C17.6693 26.0339 18.0625 26.3099 18.5469 26.4922C19.0365 26.6745 19.5833 26.7656 20.1875 26.7656C20.8177 26.7656 21.3698 26.6719 21.8438 26.4844C22.3229 26.2917 22.6979 26.026 22.9688 25.6875C23.2396 25.3437 23.3776 24.9427 23.3828 24.4844C23.3776 24.0677 23.2552 23.724 23.0156 23.4531C22.776 23.1771 22.4401 22.9479 22.0078 22.7656C21.5807 22.5781 21.0807 22.4115 20.5078 22.2656L18.6875 21.7969C17.3698 21.4583 16.3281 20.9453 15.5625 20.2578C14.8021 19.5651 14.4219 18.6458 14.4219 17.5C14.4219 16.5573 14.6771 15.7318 15.1875 15.0234C15.7031 14.3151 16.4036 13.7656 17.2891 13.375C18.1745 12.9792 19.1771 12.7812 20.2969 12.7812C21.4323 12.7812 22.4271 12.9792 23.2813 13.375C24.1406 13.7656 24.8151 14.3099 25.3047 15.0078C25.7943 15.7005 26.0469 16.4974 26.0625 17.3984H23.2734Z" fill="#D31E15"/>
<circle cx="20" cy="20" r="15" stroke="#030126" stroke-width="2.5"/>
<rect x="29.7651" y="26" width="7.05186" height="4" transform="rotate(43.7274 29.7651 26)" fill="white"/>
</svg>
